# This file uses centimeters as units for non-parametric coordinates.

mtllib outer_bend.mtl
g default
v 1.811635 0.000000 3.179125
v 1.163805 0.000000 3.834682
v 1.166701 1.000000 3.830738
v 4.000000 1.000000 5.000000
v 3.999788 0.000000 3.999557
v 4.000000 0.000000 5.000000
v 1.811838 0.500050 3.179125
v 1.489892 1.000000 3.505340
v 4.000000 0.500050 3.999557
v 4.000000 1.000000 4.498801
v 4.000000 0.000000 4.498711
v 1.485400 0.000000 3.509771
v 0.995988 0.000000 1.000000
v 0.000645 0.000000 1.000000
v -0.000645 1.000000 1.000000
v 0.995828 0.500050 1.000000
v 0.501387 1.000000 1.000000
v 0.502657 0.000000 1.000000
v 0.758740 1.000000 2.396129
v 1.194478 0.500050 2.219461
v 1.194620 0.000000 2.219461
v 0.757646 0.000000 2.397889
v 0.315766 0.000000 2.572256
v 0.316110 1.000000 2.572256
v 2.601778 1.000000 4.233353
v 2.425758 1.000000 4.680247
v 2.425758 0.000000 4.681274
v 2.600081 0.000000 4.235085
v 2.777425 0.000000 3.792210
v 2.777866 0.500050 3.792210
v 3.364648 0.000000 3.949961
v 3.364927 0.500050 3.949961
v 3.271498 1.000000 4.428578
v 3.178594 1.000000 4.915219
v 3.178594 0.000000 4.915042
v 3.271488 0.000000 4.429214
v 0.083174 1.000000 1.820414
v 0.565798 1.000000 1.727647
v 1.039411 0.500050 1.634348
v 1.039565 0.000000 1.634348
v 0.566095 0.000000 1.727656
v 0.084103 0.000000 1.820414
v 1.751438 1.000000 4.314665
v 2.003813 1.000000 3.922469
v 2.256064 0.500050 3.532897
v 2.255639 0.000000 3.532897
v 2.000201 0.000000 3.925499
v 1.750993 0.000000 4.316994
v 1.454727 0.000000 2.738373
v 1.454737 0.500050 2.738373
v 1.070391 1.000000 2.992187
v 0.682610 1.000000 3.245914
v 0.680636 0.000000 3.247121
v 1.067603 0.000000 2.996947
v 3.677543 0.000000 3.988647
v 3.677770 0.500050 3.988647
v 3.629798 1.000000 4.479935
v 3.581958 1.000000 4.978636
v 3.581958 0.000000 4.978539
v 3.629793 0.000000 4.480108
v 1.647732 0.000000 3.345359
v 1.260890 0.000000 2.869053
v 0.976497 0.000000 2.309876
v 0.803730 0.000000 1.681072
v 0.750590 0.000000 1.000000
v 0.749731 0.750025 1.000000
v 0.803356 0.750025 1.681067
v 0.976597 0.750025 2.308018
v 1.261537 0.750025 2.867544
v 1.649001 0.750025 3.344170
v 2.128455 0.750025 3.728697
v 2.689601 0.750025 4.012904
v 3.318138 0.750025 4.188621
v 3.653765 0.750025 4.233331
v 4.000000 0.750025 4.248102
v 4.000000 0.000000 4.248134
v 3.653763 0.000000 4.233285
v 3.318133 0.000000 4.188875
v 2.688136 0.000000 4.013426
v 2.126672 0.000000 3.729543
v 2.292711 1.000000 4.091772
v 2.077528 1.000000 4.512978
v 2.077528 0.000000 4.514677
v 2.290896 0.000000 4.094140
v 2.397780 0.000000 3.884528
v 2.507427 0.000000 3.674810
v 2.507918 0.500050 3.674810
v 2.399654 0.750025 3.883850
v 2.793027 1.000000 4.814899
v 2.928070 1.000000 4.346010
v 2.995976 0.750025 4.114826
v 3.064192 0.500050 3.884213
v 3.063837 0.000000 3.884213
v 2.996005 0.000000 4.115189
v 2.928205 0.000000 4.347172
v 2.793027 0.000000 4.815399
v 1.447183 1.000000 4.086823
v 1.736529 1.000000 3.726613
v 1.877859 0.750025 3.548467
v 2.023661 0.500050 3.367365
v 2.023353 0.000000 3.367365
v 1.876284 0.000000 3.549484
v 1.731298 0.000000 3.730334
v 1.445935 0.000000 4.089852
v 1.621687 0.000000 2.969120
v 1.621790 0.500050 2.969120
v 1.443121 0.750025 3.116835
v 1.267377 1.000000 3.259764
v 0.911067 1.000000 3.550597
v 0.908197 0.000000 3.552835
v 1.263723 0.000000 3.264924
v 1.442166 0.000000 3.118189
v 1.311901 0.500050 2.488038
v 1.311976 0.000000 2.488038
v 1.105244 0.000000 2.599150
v 0.898523 0.000000 2.707095
v 0.482515 0.000000 2.920198
v 0.483629 1.000000 2.920198
v 0.900424 1.000000 2.704367
v 1.105606 0.750025 2.597502
v 0.646727 1.000000 2.070230
v 0.182018 1.000000 2.205177
v 0.182358 0.000000 2.205177
v 0.646382 0.000000 2.070915
v 0.875615 0.000000 2.002883
v 1.103527 0.000000 1.934255
v 1.103378 0.500050 1.934255
v 0.875446 0.750025 2.002383
v 0.021071 1.000000 1.417740
v 0.517089 1.000000 1.369959
v 0.761296 0.750025 1.346017
v 1.003375 0.500050 1.322038
v 1.003533 0.000000 1.322038
v 0.761827 0.000000 1.346019
v 0.517921 0.000000 1.369964
v 0.022486 0.000000 1.417740
vt 0.092157 0.171781
vt 0.755893 0.856928
vt 0.828896 0.871205
vt 0.822575 0.932453
vt 0.588295 0.890328
vt 0.555802 0.896118
vt 0.549078 0.844304
vt 0.584211 0.840459
vt 0.439695 0.862842
vt 0.450756 0.923713
vt 0.655587 0.841360
vt 0.654519 0.890354
vt 0.129536 0.134294
vt 0.705462 0.847585
vt 0.522012 0.904271
vt 0.513366 0.849841
vt 0.605373 0.099156
vt 0.573944 0.092255
vt 0.716000 0.095717
vt 0.272890 0.170781
vt 0.840381 0.128615
vt 0.768096 0.140381
vt 0.763802 0.085142
vt 0.835782 0.067181
vt 0.599057 0.148724
vt 0.564900 0.143792
vt 0.471218 0.061149
vt 0.988922 0.117933
vt 0.669344 0.151743
vt 0.718403 0.147679
vt 0.541174 0.082854
vt 0.530175 0.137108
vt 0.662401 0.448275
vt 0.715378 0.449350
vt 0.714370 0.498148
vt 0.661324 0.496799
vt 0.583472 0.495087
vt 0.584550 0.446446
vt 0.547506 0.494410
vt 0.548670 0.445598
vt 0.445972 0.441229
vt 0.513380 0.444318
vt 0.512356 0.493589
vt 0.443828 0.491231
vt 0.837026 0.449925
vt 0.836448 0.500657
vt 0.766485 0.499382
vt 0.767718 0.449642
vt 0.836031 0.551387
vt 0.765508 0.548942
vt 0.987494 0.554033
vt 0.510850 0.542719
vt 0.582534 0.543692
vt 0.546117 0.543166
vt 0.660225 0.545257
vt 0.713373 0.546917
vt 0.656649 0.741434
vt 0.580745 0.740703
vt 0.580467 0.690899
vt 0.657294 0.691826
vt 0.709998 0.694708
vt 0.709062 0.744984
vt 0.834239 0.758491
vt 0.761323 0.750299
vt 0.762862 0.698960
vt 0.835198 0.705320
vt 0.435005 0.695438
vt 0.983769 0.768490
vt 0.507309 0.692518
vt 0.507572 0.743983
vt 0.544187 0.741831
vt 0.543987 0.691270
vt 0.841315 0.295121
vt 0.769626 0.298753
vt 0.770046 0.247110
vt 0.842158 0.241644
vt 0.666674 0.251368
vt 0.718416 0.250277
vt 0.717683 0.300722
vt 0.665464 0.301107
vt 0.589078 0.298769
vt 0.591392 0.248847
vt 0.553221 0.296987
vt 0.555648 0.246327
vt 0.447584 0.234360
vt 0.519837 0.242689
vt 0.517591 0.294127
vt 0.446246 0.287854
vt 0.763847 0.648324
vt 0.835628 0.653289
vt 0.658127 0.642610
vt 0.711252 0.645050
vt 0.580695 0.641482
vt 0.544257 0.641437
vt 0.436937 0.643162
vt 0.508215 0.642030
vt 0.664379 0.350522
vt 0.587317 0.348349
vt 0.716912 0.350781
vt 0.840022 0.347435
vt 0.768939 0.349620
vt 0.990450 0.344800
vt 0.516138 0.344776
vt 0.551491 0.347030
vt 0.581883 0.790704
vt 0.656127 0.791333
vt 0.707681 0.795970
vt 0.759243 0.802919
vt 0.832371 0.813485
vt 0.435188 0.804620
vt 0.509184 0.796321
vt 0.545640 0.792823
vt 0.764757 0.598424
vt 0.835817 0.602181
vt 0.439360 0.592032
vt 0.509437 0.592098
vt 0.545105 0.592105
vt 0.581377 0.592437
vt 0.658948 0.593788
vt 0.712512 0.595836
vt 0.585863 0.397557
vt 0.663378 0.399565
vt 0.716138 0.400278
vt 0.768163 0.399773
vt 0.838529 0.398827
vt 0.445876 0.390885
vt 0.514920 0.394805
vt 0.550074 0.396522
vt 0.769783 0.194387
vt 0.842081 0.186458
vt 0.450887 0.178981
vt 0.523640 0.190335
vt 0.559260 0.195237
vt 0.594581 0.198737
vt 0.668006 0.201474
vt 0.718823 0.199251
vt 0.457845 0.121017
vt 0.198204 0.022285
vt 0.985534 0.055785
vt 0.991454 0.235296
vt 0.990809 0.177891
vt 0.445870 0.339919
vt 0.991215 0.290789
vt 0.988544 0.449952
vt 0.989473 0.397678
vt 0.441720 0.541490
vt 0.987875 0.501955
vt 0.434133 0.749059
vt 0.985443 0.713074
vt 0.986433 0.659081
vt 0.987032 0.606263
vt 0.129208 0.022144
vt 0.091739 0.022252
vt 0.701182 0.899496
vt 0.166593 0.096809
vt 0.310290 0.134180
vt 0.670333 0.102651
vt 0.198139 0.134123
vt 0.198160 0.097143
vt 0.977155 0.885527
vt 0.981090 0.825806
vt 0.347690 0.097258
vt 0.347734 0.022372
vt 0.198118 0.170738
vt 0.972300 0.947496
vt 0.016782 0.022468
vt 0.749721 0.912091
vt 0.017213 0.171997
vt 0.166377 0.022037
vn 0.000000 1.000000 0.000000
vn 0.000000 1.000000 0.000000
vn 0.000000 1.000000 0.000000
vn 0.000000 1.000000 0.000000
vn 0.000000 -1.000000 0.000000
vn 0.000000 -1.000000 0.000000
vn 0.000000 -1.000000 0.000000
vn 0.000000 -1.000000 0.000000
vn -0.102775 -0.000091 0.994705
vn -0.102776 -0.000091 0.994705
vn -0.051153 -0.000048 0.998691
vn -0.051153 -0.000048 0.998691
vn 0.033841 -0.000015 -0.999427
vn 0.077867 -0.000038 -0.996964
vn 0.077841 -0.000038 -0.996966
vn 0.033841 -0.000015 -0.999427
vn 1.000000 -0.000170 -0.000342
vn 1.000000 -0.000032 -0.000065
vn 1.000000 -0.000070 -0.000142
vn 1.000000 -0.000170 -0.000342
vn 0.058585 0.701165 -0.710588
vn 0.062133 0.702555 -0.708912
vn 0.030439 0.704260 -0.709289
vn 0.027315 0.702708 -0.710954
vn 1.000000 0.000000 -0.000000
vn 1.000000 0.000000 -0.000000
vn 1.000000 0.000000 -0.000000
vn 1.000000 0.000000 -0.000000
vn 0.000000 -1.000000 0.000000
vn 0.000000 -1.000000 0.000000
vn 0.000000 -1.000000 0.000000
vn 0.000000 -1.000000 0.000000
vn -0.000000 0.000000 -1.000000
vn -0.000000 0.000000 -1.000000
vn -0.000000 0.000000 -1.000000
vn -0.000000 0.000000 -1.000000
vn 0.000000 1.000000 0.000000
vn 0.000000 1.000000 0.000000
vn 0.000000 1.000000 0.000000
vn 0.000000 1.000000 0.000000
vn 0.000000 -1.000000 0.000000
vn 0.000000 -1.000000 0.000000
vn 0.000000 -1.000000 0.000000
vn 0.000000 -1.000000 0.000000
vn -0.998643 -0.001351 0.052063
vn -0.994842 -0.001258 0.101425
vn -0.994843 -0.001258 0.101416
vn -0.998643 -0.001351 0.052063
vn 0.997648 0.000315 -0.068538
vn 0.997648 0.000315 -0.068539
vn 0.999726 0.000318 -0.023423
vn 0.999726 0.000318 -0.023423
vn 0.714841 0.698987 -0.020450
vn 0.713062 0.700692 -0.023945
vn 0.712941 0.698952 -0.056400
vn 0.714772 0.697392 -0.052398
vn 0.000000 -1.000000 0.000000
vn 0.000000 -1.000000 0.000000
vn 0.000000 -1.000000 0.000000
vn 0.000000 -1.000000 0.000000
vn -0.000000 0.000000 -1.000000
vn -0.000000 0.000000 -1.000000
vn -0.000000 0.000000 -1.000000
vn -0.000000 0.000000 -1.000000
vn 0.569209 0.680269 -0.461774
vn 0.571594 0.675977 -0.465119
vn 0.546901 0.674982 -0.495276
vn 0.543877 0.679533 -0.492375
vn 0.741548 -0.000227 -0.670900
vn 0.777071 -0.000159 -0.629413
vn 0.777065 -0.000159 -0.629420
vn 0.741548 -0.000227 -0.670900
vn 0.000000 -1.000000 0.000000
vn 0.000000 -1.000000 0.000000
vn 0.000000 -1.000000 0.000000
vn 0.000000 -1.000000 0.000000
vn 0.000000 -1.000000 0.000000
vn 0.000000 -1.000000 0.000000
vn 0.000000 -1.000000 0.000000
vn 0.000000 -1.000000 0.000000
vn -0.771353 0.003596 0.636398
vn -0.771357 0.003596 0.636393
vn -0.739708 0.004213 0.672914
vn -0.739708 0.004213 0.672914
vn 0.000000 1.000000 0.000000
vn 0.000000 1.000000 0.000000
vn 0.000000 1.000000 0.000000
vn 0.000000 1.000000 0.000000
vn 0.000000 1.000000 0.000000
vn 0.000000 1.000000 0.000000
vn 0.000000 1.000000 0.000000
vn 0.000000 1.000000 0.000000
vn -0.672516 0.003974 0.740072
vn -0.636122 0.003317 0.771581
vn -0.636168 0.003318 0.771544
vn -0.672516 0.003974 0.740072
vn 0.000000 -1.000000 0.000000
vn 0.000000 -1.000000 0.000000
vn 0.000000 -1.000000 0.000000
vn 0.000000 -1.000000 0.000000
vn 0.000000 -1.000000 0.000000
vn 0.000000 -1.000000 0.000000
vn 0.000000 -1.000000 0.000000
vn 0.000000 -1.000000 0.000000
vn 0.623048 -0.000384 -0.782183
vn 0.623074 -0.000384 -0.782163
vn 0.664363 -0.000340 -0.747410
vn 0.664363 -0.000340 -0.747410
vn 0.487642 0.680076 -0.547451
vn 0.491062 0.675625 -0.549899
vn 0.460807 0.677323 -0.573490
vn 0.456955 0.681327 -0.571827
vn 0.259455 -0.000189 -0.965755
vn 0.259495 -0.000189 -0.965745
vn 0.352291 -0.000307 -0.935890
vn 0.352242 -0.000307 -0.935909
vn 0.258293 0.689291 -0.676877
vn 0.262396 0.688916 -0.675679
vn 0.194440 0.693642 -0.693581
vn 0.190302 0.693272 -0.695096
vn 0.000000 1.000000 0.000000
vn 0.000000 1.000000 0.000000
vn 0.000000 1.000000 0.000000
vn 0.000000 1.000000 0.000000
vn -0.388133 0.000973 0.921603
vn -0.388110 0.000973 0.921613
vn -0.297240 0.000434 0.954803
vn -0.297249 0.000434 0.954800
vn 0.000000 -1.000000 0.000000
vn 0.000000 -1.000000 0.000000
vn 0.000000 -1.000000 0.000000
vn 0.000000 -1.000000 0.000000
vn 0.000000 -1.000000 0.000000
vn 0.000000 -1.000000 0.000000
vn 0.000000 -1.000000 0.000000
vn 0.000000 -1.000000 0.000000
vn 0.000000 1.000000 0.000000
vn 0.000000 1.000000 0.000000
vn 0.000000 1.000000 0.000000
vn 0.000000 1.000000 0.000000
vn 0.699339 0.689368 -0.188937
vn 0.697598 0.689920 -0.193306
vn 0.678963 0.685265 -0.263479
vn 0.680218 0.685614 -0.259300
vn 0.935876 0.000238 -0.352330
vn 0.935873 0.000238 -0.352337
vn 0.966632 0.000287 -0.256170
vn 0.966633 0.000287 -0.256165
vn 0.000000 -1.000000 0.000000
vn 0.000000 -1.000000 0.000000
vn 0.000000 -1.000000 0.000000
vn 0.000000 -1.000000 0.000000
vn 0.000000 -1.000000 0.000000
vn 0.000000 -1.000000 0.000000
vn 0.000000 -1.000000 0.000000
vn 0.000000 -1.000000 0.000000
vn -0.955435 -0.000309 0.295201
vn -0.955433 -0.000309 0.295207
vn -0.921719 0.000328 0.387859
vn -0.921715 0.000328 0.387867
vn 0.000000 1.000000 0.000000
vn 0.000000 1.000000 0.000000
vn 0.326218 0.685830 -0.650552
vn 0.330205 0.684436 -0.650009
vn 0.445063 -0.000411 -0.895499
vn 0.445012 -0.000411 -0.895525
vn 0.000000 -1.000000 0.000000
vn 0.000000 -1.000000 0.000000
vn 0.000000 -1.000000 0.000000
vn 0.000000 -1.000000 0.000000
vn -0.475855 0.001533 0.879522
vn -0.475810 0.001533 0.879547
vn 0.893927 0.000128 -0.448214
vn 0.893924 0.000128 -0.448218
vn 0.651923 0.681090 -0.333337
vn 0.652134 0.682863 -0.329270
vn 0.000000 1.000000 0.000000
vn 0.000000 1.000000 0.000000
vn -0.879048 0.001144 0.476732
vn -0.879032 0.001144 0.476761
vn 0.000000 -1.000000 0.000000
vn 0.000000 -1.000000 0.000000
vn 0.000000 -1.000000 0.000000
vn 0.000000 -1.000000 0.000000
vn 0.167789 -0.000098 -0.985823
vn 0.167758 -0.000098 -0.985828
vn 0.123458 0.697271 -0.706096
vn 0.127364 0.698235 -0.704447
vn 0.000000 1.000000 0.000000
vn 0.000000 1.000000 0.000000
vn -0.202856 0.000009 0.979208
vn -0.202859 0.000009 0.979208
vn 0.000000 -1.000000 0.000000
vn 0.000000 -1.000000 0.000000
vn 0.000000 -1.000000 0.000000
vn 0.000000 -1.000000 0.000000
vn 0.711301 0.700345 -0.059733
vn 0.711448 0.702216 -0.027094
vn 0.696107 0.690414 -0.196885
vn 0.677939 0.684951 -0.266908
vn 0.651930 0.679508 -0.336534
vn 0.573904 0.672127 -0.467846
vn 0.549576 0.670908 -0.497843
vn 0.463939 0.673738 -0.575184
vn 0.494108 0.671620 -0.552073
vn 0.333448 0.683196 -0.649658
vn 0.265762 0.688587 -0.674699
vn 0.197827 0.693978 -0.692285
vn 0.130573 0.699101 -0.703000
vn 0.065061 0.703801 -0.707411
vn 0.033232 0.705638 -0.707793
vn 0.000000 1.000000 0.000000
vn 0.000000 1.000000 0.000000
vn -0.559121 0.002247 0.829083
vn -0.559074 0.002247 0.829115
vn 0.000000 -1.000000 0.000000
vn 0.000000 -1.000000 0.000000
vn 0.000000 -1.000000 0.000000
vn 0.000000 -1.000000 0.000000
vn 0.536076 -0.000438 -0.844170
vn 0.536035 -0.000438 -0.844196
vn 0.393032 0.683179 -0.615460
vn 0.397133 0.680421 -0.615884
vn 0.400428 0.677960 -0.616464
vn 0.840755 -0.000017 -0.541416
vn 0.840754 -0.000017 -0.541417
vn 0.614827 0.681135 -0.397545
vn 0.615970 0.677805 -0.401450
vn 0.617256 0.674828 -0.404478
vn 0.000000 1.000000 0.000000
vn 0.000000 1.000000 0.000000
vn -0.828671 0.002304 0.559731
vn -0.828675 0.002304 0.559726
vn 0.000000 -1.000000 0.000000
vn 0.000000 -1.000000 0.000000
vn 0.000000 -1.000000 0.000000
vn 0.000000 -1.000000 0.000000
vn 0.000000 1.000000 0.000000
vn 0.000000 1.000000 0.000000
vn -0.979876 -0.000891 0.199606
vn -0.979873 -0.000891 0.199617
vn 0.000000 -1.000000 0.000000
vn 0.000000 -1.000000 0.000000
vn 0.000000 -1.000000 0.000000
vn 0.000000 -1.000000 0.000000
vn 0.986921 0.000304 -0.161205
vn 0.986921 0.000304 -0.161202
vn 0.710584 0.693398 -0.119460
vn 0.708725 0.694553 -0.123712
vn 0.707091 0.695584 -0.127223
s 1
g outer_bend
usemtl initialShadingGroup
f 10/167/1 57/2/2 58/3/3 4/4/4
s 2
f 5/5/5 76/6/6 77/7/7 55/8/8
s 3
f 58/3/9 59/160/10 6/165/11 4/4/12
s 4
f 5/5/13 55/8/14 56/11/15 9/12/16
s 5
f 9/155/17 75/13/18 76/152/19 5/169/20
s 6
f 56/11/21 74/14/22 75/154/23 9/12/24
s 5
f 11/153/25 10/1/26 4/168/27 6/166/28
s 2
f 59/9/29 60/16/30 11/15/31 6/10/32
s 8
f 13/164/33 65/158/34 66/156/35 16/20/36
s 9
f 129/21/37 130/22/38 17/23/39 15/24/40
s 10
f 133/25/41 134/26/42 65/18/43 13/17/44
s 11
f 14/139/45 136/28/46 129/21/47 15/24/48
s 12
f 132/29/49 133/25/50 13/17/51 16/157/52
s 13
f 16/157/53 66/19/54 131/30/55 132/29/56
s 10
f 18/31/57 135/32/58 136/137/59 14/27/60
s 8
f 17/162/61 18/159/62 14/138/63 15/163/64
s 13
f 106/33/65 107/34/66 70/35/67 7/36/68
s 12
f 1/37/69 105/38/70 106/33/71 7/36/72
s 10
f 1/37/73 61/39/74 112/40/75 105/38/76
f 110/41/77 111/42/78 12/43/79 2/44/80
s 11
f 109/45/81 110/144/82 2/147/83 3/46/84
s 9
f 8/47/85 108/48/86 109/45/87 3/46/88
s 1
f 97/49/89 98/50/90 8/47/91 3/46/92
s 3
f 2/147/93 104/51/94 97/49/95 3/46/96
s 2
f 12/43/97 103/52/98 104/146/99 2/44/100
f 101/53/101 102/54/102 61/39/103 1/37/104
s 4
f 100/55/105 101/53/106 1/37/107 7/36/108
s 6
f 7/36/109 70/35/110 99/56/111 100/55/112
s 4
f 92/57/113 93/58/114 29/59/115 30/60/116
s 6
f 30/60/117 72/61/118 91/62/119 92/57/120
s 1
f 89/63/121 90/64/122 25/65/123 26/66/124
s 3
f 26/66/125 27/149/126 96/68/127 89/63/128
s 2
f 27/67/129 28/69/130 95/70/131 96/148/132
f 93/58/133 94/71/134 79/72/135 29/59/136
s 9
f 24/73/137 19/74/138 121/75/139 122/76/140
s 13
f 127/77/141 128/78/142 68/79/143 20/80/144
s 12
f 20/80/145 21/81/146 126/82/147 127/77/148
s 10
f 21/81/149 63/83/150 125/84/151 126/82/152
f 123/85/153 124/86/154 22/87/155 23/88/156
s 11
f 122/76/157 123/140/158 23/143/159 24/73/160
s 1
f 26/66/124 25/65/123 81/89/161 82/90/162
s 6
f 87/91/163 88/92/164 72/61/118 30/60/117
s 4
f 30/60/116 29/59/115 86/93/165 87/91/166
s 2
f 29/59/136 79/72/135 85/94/167 86/93/168
f 83/95/169 84/96/170 28/69/130 27/67/129
s 3
f 82/90/171 83/150/172 27/149/126 26/66/125
s 12
f 113/97/173 114/98/174 21/81/146 20/80/145
s 13
f 20/80/144 68/79/143 120/99/175 113/97/176
s 9
f 118/100/177 119/101/178 19/74/138 24/73/137
s 11
f 24/73/160 23/143/159 117/102/179 118/100/180
s 10
f 23/88/156 22/87/155 116/103/181 117/142/182
f 114/98/183 115/104/184 63/83/150 21/81/149
s 4
f 56/11/15 55/8/14 31/105/185 32/106/186
s 6
f 32/106/187 73/107/188 74/14/22 56/11/21
s 1
f 58/3/3 57/2/2 33/108/189 34/109/190
s 3
f 34/109/191 35/161/192 59/160/10 58/3/9
s 2
f 35/110/193 36/111/194 60/16/30 59/9/29
f 55/8/8 77/7/7 78/112/195 31/105/196
s 10
f 111/42/78 112/40/75 61/39/74 12/43/79
f 63/83/150 115/104/184 116/103/181 22/87/155
f 124/86/154 125/84/151 63/83/150 22/87/155
f 65/18/43 134/26/42 135/32/58 18/31/57
s 8
f 66/156/35 65/158/34 18/159/62 17/162/61
s 13
f 130/22/197 131/30/55 66/19/54 17/23/198
f 68/79/143 128/78/142 121/75/199 19/74/200
f 119/101/201 120/99/175 68/79/143 19/74/200
f 70/35/67 107/34/66 108/48/202 8/47/203
s 6
f 98/50/204 99/56/111 70/35/110 8/47/205
f 72/61/118 88/92/164 81/89/206 25/65/207
f 90/64/208 91/62/119 72/61/118 25/65/207
f 74/14/22 73/107/188 33/108/209 57/2/210
f 75/154/23 74/14/22 57/2/210 10/167/211
s 5
f 76/152/19 75/13/18 10/1/26 11/153/25
s 2
f 77/7/7 76/6/6 11/15/31 60/16/30
f 78/112/195 77/7/7 60/16/30 36/111/194
f 79/72/135 94/71/134 95/70/131 28/69/130
f 84/96/170 85/94/167 79/72/135 28/69/130
f 61/39/103 102/54/102 103/52/98 12/43/97
s 1
f 82/90/162 81/89/161 44/113/212 43/114/213
s 3
f 43/114/214 48/151/215 83/150/172 82/90/171
s 2
f 48/115/216 47/116/217 84/96/170 83/95/169
f 80/117/218 85/94/167 84/96/170 47/116/217
f 86/93/168 85/94/167 80/117/218 46/118/219
s 4
f 87/91/166 86/93/165 46/118/220 45/119/221
s 6
f 45/119/222 71/120/223 88/92/164 87/91/163
f 81/89/206 88/92/164 71/120/223 44/113/224
s 1
f 34/109/190 33/108/189 90/64/122 89/63/121
s 6
f 73/107/188 91/62/119 90/64/208 33/108/209
f 92/57/120 91/62/119 73/107/188 32/106/187
s 4
f 32/106/186 31/105/185 93/58/114 92/57/113
s 2
f 31/105/196 78/112/195 94/71/134 93/58/133
f 95/70/131 94/71/134 78/112/195 36/111/194
f 96/148/132 95/70/131 36/111/194 35/110/193
s 3
f 89/63/128 96/68/127 35/161/192 34/109/191
s 1
f 43/114/213 44/113/212 98/50/90 97/49/89
s 6
f 71/120/223 99/56/111 98/50/204 44/113/224
f 100/55/112 99/56/111 71/120/223 45/119/222
s 4
f 45/119/221 46/118/220 101/53/106 100/55/105
s 2
f 46/118/219 80/117/218 102/54/102 101/53/101
f 103/52/98 102/54/102 80/117/218 47/116/217
f 104/146/99 103/52/98 47/116/217 48/115/216
s 3
f 97/49/95 104/51/94 48/151/215 43/114/214
s 12
f 106/33/71 105/38/70 49/121/225 50/122/226
s 13
f 50/122/227 69/123/228 107/34/66 106/33/65
f 108/48/202 107/34/66 69/123/228 51/124/229
s 9
f 109/45/87 108/48/86 51/124/230 52/125/231
s 11
f 52/125/232 53/145/233 110/144/82 109/45/81
s 10
f 53/126/234 54/127/235 111/42/78 110/41/77
f 62/128/236 112/40/75 111/42/78 54/127/235
f 105/38/76 112/40/75 62/128/236 49/121/237
s 12
f 50/122/226 49/121/225 114/98/174 113/97/173
s 10
f 49/121/237 62/128/236 115/104/184 114/98/183
f 116/103/181 115/104/184 62/128/236 54/127/235
f 117/142/182 116/103/181 54/127/235 53/126/234
s 11
f 118/100/180 117/102/179 53/145/233 52/125/232
s 9
f 52/125/231 51/124/230 119/101/178 118/100/177
s 13
f 69/123/228 120/99/175 119/101/201 51/124/229
f 113/97/176 120/99/175 69/123/228 50/122/227
s 9
f 122/76/140 121/75/139 38/129/238 37/130/239
s 11
f 37/130/240 42/141/241 123/140/158 122/76/157
s 10
f 42/131/242 41/132/243 124/86/154 123/85/153
f 64/133/244 125/84/151 124/86/154 41/132/243
f 126/82/152 125/84/151 64/133/244 40/134/245
s 12
f 127/77/148 126/82/147 40/134/246 39/135/247
s 13
f 39/135/248 67/136/249 128/78/142 127/77/141
f 121/75/199 128/78/142 67/136/249 38/129/250
s 9
f 37/130/239 38/129/238 130/22/38 129/21/37
s 13
f 67/136/249 131/30/55 130/22/197 38/129/250
f 132/29/56 131/30/55 67/136/249 39/135/248
s 12
f 39/135/247 40/134/246 133/25/50 132/29/49
s 10
f 40/134/245 64/133/244 134/26/42 133/25/41
f 135/32/58 134/26/42 64/133/244 41/132/243
f 136/137/59 135/32/58 41/132/243 42/131/242
s 11
f 129/21/47 136/28/46 42/141/241 37/130/240
